<svg xmlns="http://www.w3.org/2000/svg" version="1.1" xmlns:xlink="http://www.w3.org/1999/xlink" xmlns:svgjs="http://svgjs.dev/svgjs" width="100%" height="100%" viewBox="0 0 1000 600"><rect width="1000" height="600" x="0" y="0" fill="#d2302c"/><g><circle r="166.66666666666666" cx="312.3154093424479" cy="334.53765742947036" fill="#00ffff" transform="matrix(0.8582289933472587,0,0,0.8582289933472587,0,12.890084128517856)"/><path d="M242.00819377445038 409.53763790969947L242.00819377445038 409.53763790969947Q234.78991966277525 409.53763790969947 228.21123945972957 407.10108968634916Q221.6325592566839 404.6949983157908 217.45997042419657 399.42596278279586Q213.28738159170928 394.1873841025928 213.28738159170928 386.0554044071614L213.28738159170928 386.0554044071614Q213.28738159170928 384.0757089756893 214.29245773384125 382.43103892492786Q215.26707702318134 380.78636887416644 216.1503257541458 380.78636887416644L216.1503257541458 380.78636887416644Q217.8863663632829 380.78636887416644 217.8863663632829 386.0554044071614L217.8863663632829 386.0554044071614Q217.8863663632829 393.5173333411715 224.2518485967854 397.68992217365883L224.2518485967854 397.68992217365883Q229.30768616023718 400.97926227518167 237.86606179475496 400.97926227518167L237.86606179475496 400.97926227518167Q246.39398057648083 400.97926227518167 255.62240697241992 397.90312014320193Q264.82037651556715 394.8269780112223 273.1655541805418 389.131546539141L273.1655541805418 389.131546539141Q283.0335744851103 382.55286633609535 295.18585874906967 370.1569272498009Q307.3685998658209 357.76098816350657 320.5259602719123 343.0807851178213L320.5259602719123 343.0807851178213Q309.98788920592244 341.98433841731367 299.5716455511001 340.67469374726284Q289.1554018962778 339.3650490772121 278.64778768307986 339.3650490772121L278.64778768307986 339.3650490772121Q271.612254688156 339.3650490772121 264.607178546024 340.76606430563845Q257.602102403892 342.19753638685677 251.8762140790189 346.1569272498009Q246.1807826069377 350.0858612599533 243.34829529729302 357.76098816350657L243.34829529729302 357.76098816350657Q243.104640474958 358.64423689447096 242.8000719470392 359.7406835949786Q242.46504656632857 360.8371302954862 242.46504656632857 361.9335769959938L242.46504656632857 361.9335769959938Q242.46504656632857 364.12647039700903 243.56149326683618 365.89296785893805L243.56149326683618 365.89296785893805Q243.98788920592244 367.20261252898877 243.98788920592244 367.41581049853187L243.98788920592244 367.41581049853187Q243.98788920592244 369.395505930004 242.2518485967854 369.395505930004L242.2518485967854 369.395505930004Q240.6985491043996 369.395505930004 239.81530037343515 367.87266329041006L239.81530037343515 367.87266329041006Q237.62240697241992 363.9132724274659 237.62240697241992 357.76098816350657L237.62240697241992 357.76098816350657Q237.62240697241992 346.1569272498009 241.91682321607476 340.00464298584154Q246.1807826069377 333.88281557467405 253.4295135714047 331.68992217365883Q260.64778768307986 329.4970287726436 268.99296534805444 329.4970287726436L268.99296534805444 329.4970287726436Q272.7087013886636 329.4970287726436 276.7899196627752 329.8015973005623Q280.8406810840951 330.136622681273 284.76961509424734 330.5934754731512L284.76961509424734 330.5934754731512Q294.42443742927276 331.44626735132374 304.74931052571947 333.54779019396335Q315.0437267693743 335.6188561838111 325.338143013029 337.8117495848263L325.338143013029 337.8117495848263Q336.75946280998335 324.44119120919186 347.81530037343515 310.8574348640142Q358.9015947896788 297.24322166604463 368.5564171247042 285.09093740208516Q378.21123945972954 272.90819628533393 385.00311763231844 264.136622681273L385.00311763231844 264.136622681273Q385.21631560186154 263.46657191985173 385.88636636328283 263.2533739503085L385.88636636328283 263.2533739503085Q386.31276230236915 262.8269780112223 386.5259602719123 262.8269780112223L386.5259602719123 262.8269780112223Q388.9320516424707 261.5173333411715 392.6782445358717 260.5122571990395Q396.3939805764808 259.5376379096994 397.7036252465316 259.5376379096994L397.7036252465316 259.5376379096994Q399.8965186475468 259.5376379096994 399.8965186475468 261.9437292802578L399.8965186475468 261.9437292802578Q399.8965186475468 262.6137800416791 398.8000719470392 264.3498206508161L398.8000719470392 264.3498206508161Q387.8356049419631 282.9894145594456 380.0691074800342 302.5122571990395Q372.2721531653133 322.0350998386334 366.36352372368896 342.65438917873496L366.36352372368896 342.65438917873496L365.9066709318108 344.1772318183289Q367.2467724546534 344.1772318183289 368.64778768307986 344.2990592294964Q370.07925976429806 344.390429787872 371.17570646480567 344.390429787872L371.17570646480567 344.390429787872Q380.617330830288 345.0604805492933 387.19601103333366 342.41073435639987L387.19601103333366 342.41073435639987Q392.0081937744504 340.67469374726284 393.77469123637934 337.38535364574L393.77469123637934 337.38535364574Q394.41428514500876 336.5021049147756 394.87113793688695 336.5021049147756L394.87113793688695 336.5021049147756Q395.96758463739457 336.5021049147756 396.3939805764808 337.7203790264507Q396.850833368359 338.90819628533393 396.18078260693767 340.00464298584154L396.18078260693767 340.00464298584154Q393.77469123637934 344.1772318183289 387.6224069724199 346.1569272498009L387.6224069724199 346.1569272498009Q384.1198689013539 347.67976988939483 379.612254688156 348.136622681273Q375.13509732774986 348.56301862035934 370.2924577338413 348.3498206508161L370.2924577338413 348.3498206508161L368.98281306379045 348.3498206508161L366.36352372368896 348.136622681273L365.0538790536382 348.136622681273Q361.76453895211534 360.19753638685677 360.42443742927276 373.11124197061315L360.42443742927276 373.11124197061315Q360.21123945972954 374.20768867112076 360.21123945972954 375.21276481325276Q360.21123945972954 376.1873841025928 360.21123945972954 377.2838308031004L360.21123945972954 377.2838308031004Q360.21123945972954 389.8015973005623 367.00311763231844 389.8015973005623L367.00311763231844 389.8015973005623Q371.3889044343489 389.8015973005623 377.41936128714076 385.8422064376182Q383.44981813993263 381.88281557467405 389.7239298150595 376.1873841025928Q395.96758463739457 370.4919526305116 400.99296534805444 364.88789171680605Q406.0488029115062 359.31428765589226 408.45489428206463 356.0249475543694L408.45489428206463 356.0249475543694Q408.9117470739427 355.56809476249134 409.76453895211534 355.56809476249134L409.76453895211534 355.56809476249134Q411.95743235313057 355.56809476249134 411.10464047495793 358.00464298584154L411.10464047495793 358.00464298584154Q410.64778768307986 358.64423689447096 407.358447581557 363.151851107669Q404.0691074800342 367.6290084680751 398.3736760079529 373.90312014320193Q392.6782445358717 380.146774965537 385.00311763231844 386.2686023767045L385.00311763231844 386.2686023767045Q378.850833368359 391.11124197061315 372.8203765155671 392.54271405183135Q366.7899196627752 393.9437292802578 363.7137775307956 393.9437292802578L363.7137775307956 393.9437292802578Q357.59195011962805 393.9437292802578 353.96758463739457 388.3701252193441Q350.343219155161 382.76606430563845 350.343219155161 373.99449070157755L350.343219155161 373.99449070157755Q350.343219155161 367.6290084680751 351.6528638252118 360.8371302954862Q352.99296534805444 354.0452521228974 354.7290059571915 347.2533739503085L354.7290059571915 347.2533739503085Q348.36352372368896 346.5833231888872 341.7848435206433 345.8219018690903Q335.20616331759754 345.0604805492933 328.62748311455186 344.1772318183289L328.62748311455186 344.1772318183289Q315.4701227084605 360.19753638685677 302.43458971353664 374.11631811274515Q289.39905671861277 388.0350998386334 277.9777369216585 396.5934754731512L277.9777369216585 396.5934754731512Q269.41936128714076 402.7153028843187 260.343219155161 406.12647039700903Q251.23662017038947 409.53763790969947 242.00819377445038 409.53763790969947ZM355.612254688156 343.0807851178213L355.612254688156 343.0807851178213Q359.5716455511001 327.7305313107147 364.9320516424707 312.2584500924405Q370.2924577338413 296.8168257269583 375.5614932668362 284.0858612599532L375.5614932668362 284.0858612599532L376.6579399673438 281.46657191985173Q367.2467724546534 294.6239323259431 355.94728006886663 309.5173333411715Q344.64778768307986 324.44119120919186 333.0132699165823 339.12139425487703L333.0132699165823 339.12139425487703Q338.73915824145547 340.21784095538464 344.43458971353664 341.22291709751664Q350.1300211856179 342.19753638685677 355.612254688156 343.0807851178213Z " fill="#d2302c" transform="matrix(0.8582289933472587,0,0,0.8582289933472587,0,12.890084128517856)"/><path d="M582.5052423092044 365.45399739327445L582.5052423092044 365.45399739327445Q577.4310200370343 365.45399739327445 572.8064123965754 363.7411797486601Q568.1818047561167 362.0497723246034 565.2486045397145 358.3458041681247Q562.3154043233124 354.66324623220385 562.3154043233124 348.94671734330336L562.3154043233124 348.94671734330336Q562.3154043233124 347.5550530070541 563.0219416017158 346.3989010969394Q563.7070686595615 345.24274918682477 564.3279650557342 345.24274918682477L564.3279650557342 345.24274918682477Q565.5483476275219 345.24274918682477 565.5483476275219 348.94671734330336L565.5483476275219 348.94671734330336Q565.5483476275219 354.19222137993484 570.023083724077 357.125421596337L570.023083724077 357.125421596337Q573.577180336652 359.4377254165664 579.5934523133599 359.4377254165664L579.5934523133599 359.4377254165664Q585.5883140695103 359.4377254165664 592.0756108984872 357.2752931402407Q598.5414975069066 355.1128608639151 604.4078979397108 351.10914961962897L604.4078979397108 351.10914961962897Q611.3448094003991 346.4845419791701 619.8874874029133 337.7705822121944Q628.4515756259852 329.05662244521886 637.7007909069029 318.73689613641716L637.7007909069029 318.73689613641716Q630.2928545939457 317.9661281963406 622.9705591632191 317.04548871236045Q615.6482637324928 316.1248492283802 608.2617376400931 316.1248492283802L608.2617376400931 316.1248492283802Q603.3159766912692 316.1248492283802 598.3916259630028 317.1097193740335Q593.4672752347365 318.11599974024443 589.4421537698927 320.89932841274276Q585.4384425256064 323.66124686468345 583.4472920137423 329.05662244521886L583.4472920137423 329.05662244521886Q583.2760102492808 329.6775188413915 583.0619080437041 330.448286781468Q582.8263956175696 331.21905472154447 582.8263956175696 331.9898226616209L582.8263956175696 331.9898226616209Q582.8263956175696 333.5313585417739 583.597163557646 334.77315133411935L583.597163557646 334.77315133411935Q583.8969066454536 335.6937908180995 583.8969066454536 335.84366236200333L583.8969066454536 335.84366236200333Q583.8969066454536 337.2353266982525 582.6765240736659 337.2353266982525L582.6765240736659 337.2353266982525Q581.5846028252241 337.2353266982525 580.9637064290514 336.1648156703685L580.9637064290514 336.1648156703685Q579.4221705488985 333.38148699787007 579.4221705488985 329.05662244521886L579.4221705488985 329.05662244521886Q579.4221705488985 320.89932841274276 582.4410116475314 316.57446386009144Q585.4384425256064 312.2710095279979 590.5340750183343 310.7294736478449Q595.6082972905044 309.1879377676919 601.4746977233087 309.1879377676919L601.4746977233087 309.1879377676919Q604.0867446313456 309.1879377676919 606.9557141860747 309.40203997326876Q609.8032735202461 309.63755239940326 612.5651919721868 309.95870570776844L612.5651919721868 309.95870570776844Q619.3522318889713 310.5581918833834 626.6102966580247 312.03549710186337Q633.8469512065205 313.49139209978557 641.0836057550163 315.03292797993856L641.0836057550163 315.03292797993856Q649.1124384641462 305.6338411551171 656.884348526584 296.08488278639186Q664.6776688095795 286.51451419710907 671.4647087263639 277.9718361945948Q678.2517486431484 269.4077479715229 683.026227827511 263.24160445091115L683.026227827511 263.24160445091115Q683.1760993714148 262.77057959864214 683.6471242236837 262.62070805473843L683.6471242236837 262.62070805473843Q683.9468673114912 262.3209649669309 684.096738855395 262.3209649669309L684.096738855395 262.3209649669309Q685.7881462794517 261.4003254829506 688.4216034080463 260.6937882045472Q691.0336503160833 260.00866114670146 691.9542898000635 260.00866114670146L691.9542898000635 260.00866114670146Q693.4958256802164 260.00866114670146 693.4958256802164 261.70006857075816L693.4958256802164 261.70006857075816Q693.4958256802164 262.1710934230271 692.72505774014 263.39147599481487L692.72505774014 263.39147599481487Q685.0173783393752 276.4945309761149 679.5577720971669 290.21848235358766Q674.0767556344009 303.9424337310604 669.923172846211 318.4371530486096L669.923172846211 318.4371530486096L669.6020195378458 319.5076640764936Q670.5440692423837 319.5076640764936 671.528939388037 319.5933049587243Q672.5352197542479 319.6575356203973 673.3059876943244 319.6575356203973L673.3059876943244 319.6575356203973Q679.9431560672051 320.1285604726663 684.567763707664 318.26587128414815L684.567763707664 318.26587128414815Q687.9505785557774 317.04548871236045 689.1923713481227 314.733184892131L689.1923713481227 314.733184892131Q689.6419859798341 314.1122884959583 689.9631392881993 314.1122884959583L689.9631392881993 314.1122884959583Q690.7339072282757 314.1122884959583 691.0336503160833 314.9686973182655Q691.3548036244484 315.803695920015 690.8837787721795 316.57446386009144L690.8837787721795 316.57446386009144Q689.1923713481227 319.5076640764936 684.8675067954715 320.89932841274276L684.8675067954715 320.89932841274276Q682.4053314313383 321.96983944062674 679.2366187888017 322.2909927489919Q676.0893163668228 322.59073583679947 672.6850912981516 322.44086429289575L672.6850912981516 322.44086429289575L671.7644518141714 322.44086429289575L669.923172846211 322.2909927489919L669.0025333622308 322.2909927489919Q666.6902295420014 330.7694400898332 665.7481798374635 339.84737360628935L665.7481798374635 339.84737360628935Q665.5983082935596 340.6181415463659 665.5983082935596 341.3246788247693Q665.5983082935596 342.00980588261507 665.5983082935596 342.7805738226915L665.5983082935596 342.7805738226915Q665.5983082935596 351.580174471898 670.3727874779222 351.580174471898L670.3727874779222 351.580174471898Q673.4558592382282 351.580174471898 677.6950829086487 348.79684579939953Q681.9343065790694 346.0135171269012 686.3448120139514 342.00980588261507Q690.7339072282757 338.00609463832893 694.266593620293 334.06661405571583Q697.8206902328677 330.1485436936605 699.5120976569244 327.83623987343105L699.5120976569244 327.83623987343105Q699.8332509652896 327.5150865650659 700.4327371409047 327.5150865650659L700.4327371409047 327.5150865650659Q701.9742730210576 327.5150865650659 701.3747868454426 329.2279042096802L701.3747868454426 329.2279042096802Q701.0536335370774 329.6775188413915 698.741329716848 332.84623148392814Q696.4290258966186 335.99353390590704 692.4253146523324 340.40403934078904Q688.4216034080463 344.7931345551134 683.026227827511 349.0965888872071L683.026227827511 349.0965888872071Q678.7013632748597 352.50081395587813 674.4621396044391 353.5070943220891Q670.2229159340185 354.4919644677424 668.0604836576928 354.4919644677424L668.0604836576928 354.4919644677424Q663.7570293255992 354.4919644677424 661.2092130792353 350.57389410568703Q658.6613968328714 346.63441352307393 658.6613968328714 340.4682700024621L658.6613968328714 340.4682700024621Q658.6613968328714 335.99353390590704 659.5820363168516 331.21905472154447Q660.5240860213895 326.4445755371819 661.7444685931773 321.6700963528193L661.7444685931773 321.6700963528193Q657.2697324966223 321.1990715005503 652.6451248561634 320.66381598660837Q648.0205172157046 320.1285604726663 643.3959095752457 319.5076640764936L643.3959095752457 319.5076640764936Q634.146694294328 330.7694400898332 624.983119895641 340.55391088469287Q615.8195454969541 350.3383816795525 607.7907127878242 356.35465365626055L607.7907127878242 356.35465365626055Q601.7744408111162 360.6581079883541 595.3941950849276 363.05605269081434Q588.9925391381814 365.45399739327445 582.5052423092044 365.45399739327445ZM662.36536498935 318.73689613641716L662.36536498935 318.73689613641716Q665.1486936618484 307.94614497534656 668.91689248 297.06975293204516Q672.6850912981516 286.2147711093015 676.3890594546302 277.26529891619134L676.3890594546302 277.26529891619134L677.1598273947068 275.4240199482309Q670.5440692423837 284.6732352291486 662.6008774154844 295.14283308185395Q654.6576855885853 305.6338411551171 646.4789813355516 315.9535674639187L646.4789813355516 315.9535674639187Q650.5041028003955 316.72433540399527 654.5078140446815 317.4308726823987Q658.5115252889676 318.11599974024443 662.36536498935 318.73689613641716ZM740.3627984809775 354.19222137993484L740.3627984809775 354.19222137993484Q737.7507515729405 354.19222137993484 735.5026784143841 352.9504285875895Q733.2760154763855 351.7300460158017 732.2055044485015 348.32582094713064L732.2055044485015 348.32582094713064Q731.7344795962325 346.9555668314391 731.7344795962325 344.4719812467482L731.7344795962325 344.4719812467482Q731.7344795962325 341.0891663986348 732.6551190802128 336.93558361044495Q733.575758564193 332.76059060169734 734.6676798126347 329.8273903852953L734.6676798126347 329.8273903852953Q733.8969118725582 330.1485436936605 731.8201204784633 332.52507817556295Q729.7219188638106 334.92302287802306 726.7244879857354 338.24160706446344Q723.7270571076602 341.5601912509038 720.0873196128547 344.85736521678643Q716.4689923386069 348.1759494032268 712.6151526382245 350.3383816795525Q708.7613129378421 352.50081395587813 705.0573447813634 352.50081395587813L705.0573447813634 352.50081395587813Q702.5951694172303 352.50081395587813 699.8332509652896 351.0235087373983Q697.0499222927913 349.5676137394761 695.3585148687346 347.25530991924666L695.3585148687346 347.25530991924666Q693.0462110485051 344.1722381589408 693.0462110485051 340.9392948547311L693.0462110485051 340.9392948547311Q693.0462110485051 336.7643018459835 695.8937703826765 332.3109759699861Q698.741329716848 327.83623987343105 703.3017066956338 323.5970162030104Q707.8406734538619 319.3577925325899 713.0005366082627 315.8893368022457Q718.1603997626636 312.4208810719016 722.8706482853531 310.0229363694415Q727.5808968080427 307.646401887539 730.4926868038871 306.8756339474626L730.4926868038871 306.8756339474626Q733.575758564193 305.93358424292467 737.4295982645754 305.93358424292467L737.4295982645754 305.93358424292467Q739.5920305409011 305.93358424292467 741.9043343611305 306.49024997742424Q744.2166381813598 307.0255054913663 745.7581740615128 308.2458880631541L745.7581740615128 308.2458880631541Q746.9999668538582 308.8667844593267 747.7707347939347 309.95870570776844Q748.5415027340111 311.0292167356524 748.5415027340111 312.2710095279979L748.5415027340111 312.2710095279979Q748.5415027340111 313.49139209978557 747.4495814855695 313.0417774680743L747.4495814855695 313.0417774680743Q746.2291989137817 311.17908827955614 744.1524075196868 310.6438327656142Q742.0542059050342 310.10857725167216 739.9131838492661 310.10857725167216L739.9131838492661 310.10857725167216Q733.7470403286544 310.10857725167216 726.3391040156972 314.1122884959583Q718.93116770274 318.11599974024443 713.0861774904935 323.51137532077973L713.0861774904935 323.51137532077973Q711.2234883019753 325.0529112009327 708.0761858799964 328.842520239642Q704.9074732374597 332.61071905779363 702.2954263294229 337.0854551543488Q699.6619692008281 341.5601912509038 699.6619692008281 345.24274918682477L699.6619692008281 345.24274918682477Q699.6619692008281 347.25530991924666 700.7538904492699 348.79684579939953L700.7538904492699 348.79684579939953Q701.3747868454426 349.8673568272835 702.7450409611341 349.8673568272835L702.7450409611341 349.8673568272835Q704.9074732374597 349.8673568272835 708.5258005117076 347.5550530070541Q712.1655380065132 345.24274918682477 716.0193777068956 341.94557522094203Q719.8732174072779 338.62699103450166 723.0205198292568 335.5439192741958Q726.1892324717935 332.4608475138899 727.5808968080427 331.06918317764075L727.5808968080427 331.06918317764075Q728.3516647481191 330.2984152375642 730.5783276861179 327.9004705351041Q732.8049906241165 325.5239360532016 735.4384477527111 322.7406073807033Q738.0504946607481 319.9786889287626 740.127286054843 317.9661281963406Q742.2254876694956 315.9535674639187 742.8249738451107 315.9535674639187L742.8249738451107 315.9535674639187Q743.5957417851872 315.9535674639187 745.3727900914746 316.33895143395705Q747.149838397762 316.72433540399527 748.3916311901074 317.4951033440717Q749.6120137618951 318.26587128414815 748.8412458218187 319.5076640764936L748.8412458218187 319.5076640764936Q744.8375345775326 325.3740645092979 742.4395898750724 331.7543102354864Q740.06305539317 338.15596618223276 739.5920305409011 341.85993433871135L739.5920305409011 341.85993433871135Q739.4421589969973 342.4808307348841 739.4421589969973 343.016086248826Q739.4421589969973 343.55134176276806 739.4421589969973 344.1722381589408L739.4421589969973 344.1722381589408Q739.4421589969973 350.3383816795525 743.7670235496486 350.3383816795525L743.7670235496486 350.3383816795525Q746.079327369878 350.3383816795525 749.9331670702603 347.5550530070541Q753.7870067706427 344.7931345551134 757.7907180149289 340.9392948547311Q761.794429259215 337.0854551543488 765.1130134456554 333.46712788010086Q768.4315976320958 329.8273903852953 769.6519802038835 327.98611141733477L769.6519802038835 327.98611141733477Q770.1230050561525 327.5150865650659 770.5726196878637 327.5150865650659L770.5726196878637 327.5150865650659Q771.1935160840364 327.5150865650659 771.6645409363053 328.07175229956556Q772.1141555680166 328.6070078135075 771.6645409363053 329.37777575358405L771.6645409363053 329.37777575358405Q769.9731335122486 332.13969420552473 766.7187799874813 335.99353390590704Q763.4858366832717 339.84737360628935 759.4821254389856 343.7012133066718Q755.4784141946994 347.5550530070541 751.624574494317 350.3383816795525L751.624574494317 350.3383816795525Q749.6120137618951 351.8799175597054 746.5289420015893 353.0360694698202Q743.4458702412834 354.19222137993484 740.3627984809775 354.19222137993484ZM760.7239182313309 409.21648821317194L760.7239182313309 409.21648821317194Q758.8612290428129 408.7668735814607 757.4695647065637 408.2958487291917L757.4695647065637 408.2958487291917Q754.5577747107192 406.7543128490388 753.3159819183737 404.8273929988476Q752.0741891260283 402.9004731486564 752.0741891260283 400.73804087233077L752.0741891260283 400.73804087233077Q752.0741891260283 397.20535448031353 754.4721338284885 393.1160023537967Q756.8700785309486 389.0266502272799 760.7239182313309 384.7231958951862L760.7239182313309 384.7231958951862Q764.5777579317133 380.0985882547275 770.5083890261907 375.30269884980714Q776.4390201206679 370.52821966544457 782.9049067290872 366.1391244511202Q789.3922035580642 361.75002923679585 794.3165542863306 358.51708593258616L794.3165542863306 358.51708593258616Q796.9500114149251 353.12171035205085 799.7975707490965 346.9555668314391Q802.6451300832681 340.7894233108274 805.257176991305 335.00866376025374Q807.8906341198996 329.2279042096802 809.8175539700908 324.43201480476Q811.744473820282 319.6575356203973 812.6651133042621 317.04548871236045L812.6651133042621 317.04548871236045Q810.2029379401289 319.9786889287626 806.9699946359193 324.36778414308696Q803.715641111152 328.7568793574113 799.8618014107697 333.6169994240046Q796.0079617103872 338.47711949059794 791.9400198044282 342.7805738226915Q787.8506676779112 347.1054383753428 783.5258031252599 349.8031261656105Q779.2223487931664 352.50081395587813 775.0473557844188 352.50081395587813L775.0473557844188 352.50081395587813Q768.881212263807 352.50081395587813 766.5046777819045 349.3321013133416Q764.1067330794443 346.18479889136256 764.1067330794443 341.85993433871135L764.1067330794443 341.85993433871135Q764.1067330794443 338.77686257840537 764.9631419017516 335.6937908180995Q765.798140503501 332.61071905779363 767.1898048397503 329.99867214975666L767.1898048397503 329.99867214975666Q768.1104443237305 328.1359829612386 770.1230050561525 325.0529112009327Q772.1141555680166 321.96983944062674 774.7476126966113 318.73689613641716Q777.3596596046482 315.50395283220746 780.0573473949158 313.34152055588186Q782.7550351851835 311.17908827955614 785.2172105493166 311.17908827955614L785.2172105493166 311.17908827955614Q788.1504107657188 311.17908827955614 789.6919466458718 313.25587967365107Q791.2334825260247 315.35408128830375 790.013099954237 316.1248492283802L790.013099954237 316.1248492283802Q787.5295143695461 317.8162566524369 783.9111870952983 321.284712382781Q780.2928598210503 324.7531681131252 776.7387632084755 329.2279042096802L776.7387632084755 329.2279042096802Q775.8181237244952 330.448286781468 774.5121002704767 333.08174391006264Q773.2060768164583 335.6937908180995 772.1141555680166 338.6912216961747Q771.0436445401326 341.7100627948075 771.0436445401326 344.1722381589408L771.0436445401326 344.1722381589408Q771.0436445401326 345.24274918682477 771.3433876279402 346.2490295530357Q771.6645409363053 347.25530991924666 772.4353088763818 347.72633477151555L772.4353088763818 347.72633477151555Q773.6556914481696 348.6469742554958 775.1972273283226 348.6469742554958L775.1972273283226 348.6469742554958Q777.3596596046482 348.6469742554958 780.0573473949158 347.25530991924666Q782.7550351851835 345.8636455829974 785.2172105493166 343.7012133066718L785.2172105493166 343.7012133066718Q793.8669396546193 335.39404773029196 800.6325693508461 326.29470399327806Q807.4196092676306 317.19536025626417 814.9774171244916 308.2458880631541L814.9774171244916 308.2458880631541Q815.4484419767606 306.7043521830011 817.5894640325286 306.7043521830011L817.5894640325286 306.7043521830011Q820.0730496172195 306.7043521830011 822.770737407487 308.18165740148095Q825.4684251977548 309.63755239940326 824.9974003454857 310.5581918833834L824.9974003454857 310.5581918833834Q823.6057360092365 313.6412636436894 821.3790730712379 318.73689613641716Q819.1309999126814 323.8325286291449 816.5189530046445 329.6775188413915Q813.9069060966076 335.5439192741958 811.273448968013 341.3246788247693Q808.661402059976 347.1054383753428 806.4989697836504 351.7300460158017L806.4989697836504 351.7300460158017Q808.3402487516108 350.8094065318214 813.1361381565312 347.1054383753428Q817.9106173408937 343.40147021886423 823.6057360092365 338.0917355205597Q829.3222648981371 332.76059060169734 833.9468725385958 327.0654719333546L833.9468725385958 327.0654719333546Q834.8675120225761 326.14483244937435 835.3171266542873 326.14483244937435L835.3171266542873 326.14483244937435Q836.2591763588254 326.14483244937435 836.2591763588254 327.36521502116204L836.2591763588254 327.36521502116204Q836.2591763588254 328.4571362696038 835.3171266542873 329.8273903852953L835.3171266542873 329.8273903852953Q833.004822834058 332.9104621456012 828.9368809280987 337.0854551543488Q824.8475288015819 341.23903794253863 820.1372802788924 345.47826161295916Q815.4484419767606 349.7174852833798 810.9737058802054 353.1859410137239Q806.4989697836504 356.6543967440681 803.2660264794407 358.51708593258616L803.2660264794407 358.51708593258616Q798.4915472950781 368.68694069748415 794.0168111985231 377.70064355226725Q789.542075101968 386.71434640705047 785.8381069454894 392.2595935314896L785.8381069454894 392.2595935314896Q783.3759315813562 396.1134332318719 779.8218349687813 400.1385546967157Q776.2891485767642 404.1422659410018 772.1141555680166 406.8399537312695Q767.9605727798267 409.5376415215371 763.3359651393679 409.5376415215371L763.3359651393679 409.5376415215371Q762.7150687431953 409.5376415215371 762.0941723470224 409.45200063930645Q761.4946861714075 409.3877699776334 760.7239182313309 409.21648821317194ZM761.1735328630423 405.83367336505853L761.1735328630423 405.83367336505853Q762.4153256553877 405.83367336505853 764.1923739616751 405.0629054249821Q765.9480120474049 404.29213748490565 767.9605727798267 402.60073006084895L767.9605727798267 402.60073006084895Q773.8269732126311 397.82625087648626 777.8306844569171 391.42459492974Q781.8343957012032 385.02293898299376 785.0031083437399 377.93615597840176Q788.1504107657188 370.84937297380975 791.3833540699285 364.3620761448328L791.3833540699285 364.3620761448328Q785.3884923137781 368.83681224138786 777.8306844569171 374.9173148797689Q770.2728766000562 381.0192277387076 764.1067330794443 387.03549971541565L764.1067330794443 387.03549971541565Q760.4027649229657 390.7180576513366 758.711357498909 394.35779514614217Q757.0199500748523 397.9761224203901 757.0199500748523 400.73804087233077L757.0199500748523 400.73804087233077Q757.0199500748523 405.83367336505853 761.1735328630423 405.83367336505853ZM872.3139877779581 354.19222137993484L872.3139877779581 354.19222137993484Q869.5520693260174 354.19222137993484 867.3896370496917 352.9504285875895Q865.227204773366 351.7300460158017 864.1566937454821 348.32582094713064L864.1566937454821 348.32582094713064Q864.0068222015783 347.5550530070541 863.7713097754439 346.5701828614009Q863.5357973493093 345.56390249518995 863.5357973493093 344.4719812467482L863.5357973493093 344.4719812467482Q863.5357973493093 340.7894233108274 864.5420777155203 336.1648156703685Q865.5483580817312 331.54020802990965 866.7687406535191 328.4571362696038L866.7687406535191 328.4571362696038Q866.1478442573463 328.90675090131504 864.6063083771934 331.54020802990965Q863.0647724970404 334.1522549379466 860.752468676811 337.6207106682907Q858.4401648565815 341.0891663986348 855.5926055224102 344.557622128979Q852.7450461882387 348.0260778593231 849.4264620017983 350.25274079732174Q846.1078778153579 352.50081395587813 842.4253198794371 352.50081395587813L842.4253198794371 352.50081395587813Q839.9417342947462 352.50081395587813 836.4732785644021 351.10914961962897Q833.004822834058 349.7174852833798 831.463286953905 347.25530991924666L831.463286953905 347.25530991924666Q829.921751073752 344.7931345551134 829.921751073752 341.0891663986348L829.921751073752 341.0891663986348Q829.921751073752 336.61443030207977 831.9343118061739 331.30469560377514Q833.9468725385958 325.9735506849129 837.0299442989018 321.348943044454L837.0299442989018 321.348943044454Q838.1004553267857 319.80740716430114 839.4921196630349 317.6663851085332Q840.8837839992842 315.50395283220746 842.2540381149756 313.8767760698238Q843.6457024512248 312.2710095279979 844.2665988473975 312.0997277635364L844.2665988473975 312.0997277635364Q846.1078778153579 311.5002415879213 848.5914634000488 311.5002415879213L848.5914634000488 311.5002415879213Q851.2035103080858 311.5002415879213 852.4453031004313 312.0997277635364L852.4453031004313 312.0997277635364Q853.5158141283152 312.5707526158053 853.5158141283152 313.19164901197803L853.5158141283152 313.19164901197803Q853.5158141283152 313.9624169520546 852.2740213359698 315.1827995238423L852.2740213359698 315.1827995238423Q850.5826139119131 316.72433540399527 847.6494136955109 319.80740716430114Q844.7376236996664 322.890478924607 841.8686541449374 327.21534347725833Q839.0210948107659 331.54020802990965 837.1798158428055 336.7643018459835L837.1798158428055 336.7643018459835Q835.6382799626525 340.9392948547311 835.6382799626525 344.02236661503696L835.6382799626525 344.02236661503696Q835.6382799626525 349.41774219557226 839.9417342947462 349.41774219557226L839.9417342947462 349.41774219557226Q843.6457024512248 349.41774219557226 847.8206954599724 346.3346704352664Q851.9742782481622 343.2515986749605 855.9137588307754 338.77686257840537Q859.8318291928307 334.30212648185034 863.0005418353674 329.913031267526Q866.1478442573463 325.5239360532016 867.8606619019607 322.890478924607L867.8606619019607 322.890478924607Q869.4021977821136 320.74945686883905 871.3291176323048 317.345231800168Q873.256037482496 313.9624169520546 875.0973164504564 310.7294736478449Q876.938595418417 307.47512012307755 878.0305166668585 305.93358424292467L878.0305166668585 305.93358424292467Q879.1010276947426 305.93358424292467 881.349100853299 306.3189682129629Q883.5757637912976 306.7043521830011 885.2029405536813 307.646401887539Q886.8087070955073 308.5670413715193 886.0379391554308 309.95870570776844L886.0379391554308 309.95870570776844Q885.1172996714506 311.5002415879213 883.1903798212594 314.733184892131Q881.2634599710683 317.9661281963406 879.3365401208771 321.284712382781Q877.4096202706859 324.60329656922136 876.3391092428018 326.5944470810856L876.3391092428018 326.5944470810856Q872.6351410863232 333.6812300856776 871.5432198378816 341.85993433871135L871.5432198378816 341.85993433871135Q871.3933482939779 342.4808307348841 871.3933482939779 343.016086248826Q871.3933482939779 343.55134176276806 871.3933482939779 344.1722381589408L871.3933482939779 344.1722381589408Q871.3933482939779 350.3383816795525 875.5683413027253 350.3383816795525L875.5683413027253 350.3383816795525Q877.8806451229549 350.3383816795525 881.7344848233371 347.5550530070541Q885.5883245237195 344.7931345551134 889.6562664296788 340.9392948547311Q893.7456185561956 337.0854551543488 897.0642027426359 333.46712788010086Q900.3827869290764 329.8273903852953 901.603169500864 327.98611141733477L901.603169500864 327.98611141733477Q901.9243228092292 327.5150865650659 902.5452192054018 327.5150865650659L902.5452192054018 327.5150865650659Q903.1447053810169 327.5150865650659 903.5300893510552 327.98611141733477Q903.9154733210935 328.4571362696038 903.4658586893821 329.2279042096802L903.4658586893821 329.2279042096802Q902.0741943531331 331.8399511177172 898.7556101666927 335.7794317003303Q895.4370259802523 339.69750206238564 891.4333147359661 343.63698264499874Q887.42960349168 347.5550530070541 883.5757637912976 350.3383816795525L883.5757637912976 350.3383816795525Q881.5632030588757 351.8799175597054 878.4801312985699 353.0360694698202Q875.397059538264 354.19222137993484 872.3139877779581 354.19222137993484ZM901.3034264130565 360.3583649005467L901.3034264130565 360.3583649005467Q895.1372828924447 360.3583649005467 895.1372828924447 356.9755500524333L895.1372828924447 356.9755500524333Q895.1372828924447 354.4919644677424 897.7493298004816 351.8799175597054L897.7493298004816 351.8799175597054Q899.7618905329035 349.8673568272835 902.2240658970368 348.6469742554958Q904.6862412611699 347.40518146315037 905.3071376573427 347.40518146315037L905.3071376573427 347.40518146315037Q906.0779055974191 347.40518146315037 906.1635464796499 348.0260778593231Q906.2277771413229 348.6469742554958 905.4570092012464 348.94671734330336L905.4570092012464 348.94671734330336Q903.9154733210935 349.8673568272835 901.9885534709023 351.4945335896672Q900.0616336207112 353.12171035205085 900.0616336207112 354.9629893200114L900.0616336207112 354.9629893200114Q900.0616336207112 357.42516468414453 902.9948338371132 357.42516468414453L902.9948338371132 357.42516468414453Q906.5489304496881 357.42516468414453 910.4027701500704 355.3483732900496Q914.2566098504527 353.2715818959547 917.5751940368931 350.038638591745Q920.8723680027758 346.78428506697765 922.9705696174285 343.487111101095Q925.0473610115234 340.16852691465465 925.0473610115234 337.7063515505214L925.0473610115234 337.7063515505214Q925.0473610115234 335.6937908180995 923.6556966752743 334.0023833940428Q922.264032339025 332.3109759699861 917.9605780069313 329.99867214975666L917.9605780069313 329.99867214975666Q915.0273777905292 328.2858545051423 912.3296900002616 326.4445755371819Q909.632002209994 324.60329656922136 908.2403378737448 321.96983944062674L908.2403378737448 321.96983944062674Q906.9985450813994 324.13227171695246 905.0716252312081 327.12970259502765Q903.1447053810169 330.1485436936605 900.53265847298 333.38148699787007L900.53265847298 333.38148699787007Q899.6120189889999 334.30212648185034 898.6913795050197 334.30212648185034L898.6913795050197 334.30212648185034Q897.7493298004816 334.30212648185034 897.7493298004816 333.5313585417739L897.7493298004816 333.5313585417739Q897.7493298004816 333.08174391006264 898.5200977405581 331.9898226616209L898.5200977405581 331.9898226616209Q902.6950907493057 327.0654719333546 904.6862412611699 322.890478924607Q906.6988019935918 318.73689613641716 907.4695699336684 316.57446386009144L907.4695699336684 316.57446386009144Q908.090466329841 312.0997277635364 911.6231527218582 308.09601651925027Q915.177249334433 304.09230527496413 920.2728818271607 301.09487439688894Q925.347104099331 298.0760332982561 930.6782490181932 296.3846258741994Q935.9879837164978 294.6932184501427 940.1415665046876 294.6932184501427L940.1415665046876 294.6932184501427Q944.3165595134352 294.6932184501427 947.5495028176449 296.2347543302957Q950.7824461218545 297.77629021044856 950.7824461218545 301.159105058562L950.7824461218545 301.159105058562Q950.7824461218545 303.02179424708015 949.7119350939705 305.1628163028481L949.7119350939705 305.1628163028481Q948.3202707577213 308.09601651925027 945.0873274535116 310.4083203394797L945.0873274535116 310.4083203394797Q944.9374559096079 310.5581918833834 944.6163026012428 310.5581918833834L944.6163026012428 310.5581918833834Q943.3959200294549 310.5581918833834 943.3959200294549 309.48768085549943L943.3959200294549 309.48768085549943Q943.3959200294549 308.716912915423 944.1666879695314 307.94614497534656L944.1666879695314 307.94614497534656Q945.3870705413192 306.8756339474626 946.1578384813957 305.3340980673096Q946.9286064214722 303.7925621871566 946.9286064214722 302.4008978509074L946.9286064214722 302.4008978509074Q946.9286064214722 299.6175691784091 943.6956631172625 299.6175691784091L943.6956631172625 299.6175691784091Q940.3128482691492 299.6175691784091 934.8318318063831 301.4802583669273Q929.350815343617 303.3215373348877 924.7262077031581 306.25473755128985L924.7262077031581 306.25473755128985Q919.5021138870844 309.63755239940326 915.9480172745094 313.6412636436894Q912.3939206619347 317.6663851085332 912.3939206619347 320.74945686883905L912.3939206619347 320.74945686883905Q912.3939206619347 322.2909927489919 913.4002010281457 323.5970162030104Q914.4064813943565 324.9030396570289 917.3396816107587 326.5944470810856L917.3396816107587 326.5944470810856Q918.8812174909117 327.5150865650659 921.6431359428524 328.9923917835457Q924.4264646153507 330.448286781468 926.4390253477726 331.69007957381336L926.4390253477726 331.69007957381336Q932.7550404122882 335.5439192741958 932.7550404122882 339.84737360628935L932.7550404122882 339.84737360628935Q932.7550404122882 343.40147021886423 929.6719686519822 347.01979749311215Q926.5888968916764 350.63812476736007 921.728776825083 353.6569658659929Q916.8686567584897 356.6543967440681 911.4732811779544 358.51708593258616Q906.0779055974191 360.3583649005467 901.3034264130565 360.3583649005467ZM946.4789917897609 354.66324623220385L946.4789917897609 354.66324623220385Q945.2371989974155 354.66324623220385 945.8580953935882 353.5713249837621L945.8580953935882 353.5713249837621Q946.1578384813957 352.65068549978196 947.4638619354141 348.94671734330336Q948.7912956099902 345.24274918682477 950.6325745779508 340.0186553707508Q952.4738535459113 334.77315133411935 954.4864142783332 329.29213487135326Q956.4989750107551 323.8325286291449 958.1903824348118 319.5076640764936L958.1903824348118 319.5076640764936Q957.0984611863701 320.89932841274276 954.8717982483713 323.51137532077973Q952.6451353103727 326.14483244937435 950.1615497256818 329.05662244521886Q947.6993743615486 331.9898226616209 945.5369420852229 334.1522549379466L945.5369420852229 334.1522549379466Q945.0873274535116 334.6232797902155 944.9374559096079 334.6232797902155L944.9374559096079 334.6232797902155Q944.466431057339 334.6232797902155 944.466431057339 333.6812300856776L944.466431057339 333.6812300856776Q944.466431057339 331.8399511177172 945.3870705413192 330.2984152375642L945.3870705413192 330.2984152375642Q948.7912956099902 325.9735506849129 951.9385980319693 322.20535186676125Q955.1073106745058 318.4371530486096 957.7193575825428 315.03292797993856L957.7193575825428 315.03292797993856Q956.1778217023899 314.1122884959583 956.1778217023899 312.72062415970913L956.1778217023899 312.72062415970913Q956.1778217023899 310.5581918833834 958.3402539787154 310.5581918833834L958.3402539787154 310.5581918833834Q959.2608934626957 310.5581918833834 959.7319183149647 310.8793451917486L959.7319183149647 310.8793451917486Q959.8817898588685 311.0292167356524 960.0316614027722 311.0292167356524Q960.1815329466759 311.0292167356524 960.3528147111373 311.32895982345997L960.3528147111373 311.32895982345997Q961.123582651214 310.258448795576 961.6588381651559 309.3378093115957Q962.1940936790978 308.41716982761545 962.6651185313668 307.32524857917383L962.6651185313668 307.32524857917383Q963.2646047069819 305.93358424292467 965.191524557173 302.0155138808692Q967.1184444073642 298.0760332982561 970.0516446237663 292.6806577177208Q972.9848448401684 287.2852821371855 976.7530436583202 281.504522586612Q980.5426526970294 275.72376303603846 984.9317479113538 270.7137714255414Q989.3208431256782 265.7037798150443 994.0310916483678 262.62070805473843Q998.7199299504996 259.5376362944325 1003.6656908993236 259.5376362944325L1003.6656908993236 259.5376362944325Q1004.2865872954964 259.5376362944325 1004.8860734711113 259.62327717666324Q1005.506969867284 259.6875078383363 1006.1278662634568 259.8587896027977L1006.1278662634568 259.8587896027977Q1009.9817059638391 260.6295575428742 1011.5232418439921 262.5564773930654Q1013.0647777241451 264.4833972432565 1013.0647777241451 267.09544415129346L1013.0647777241451 267.09544415129346Q1013.0647777241451 268.9367231192539 1012.3796506662992 271.03492473390656Q1011.6731133878958 273.1117161280015 1010.4527308161081 275.10286663986574L1010.4527308161081 275.10286663986574Q1007.3696590558022 280.49824222040104 1002.2740265630745 285.979258683167Q997.1783940703466 291.4602751459331 990.9480198880618 296.7700098442376Q984.6962354852193 302.07974454254224 978.4658613029345 307.0897361530393Q972.214076900092 312.0997277635364 966.8187013195567 316.57446386009144L966.8187013195567 316.57446386009144Q963.1147331630781 324.43201480476 961.123582651214 330.5339276636987Q959.1110219187921 336.61443030207977 958.040510890908 340.31839845855836L958.040510890908 340.31839845855836Q959.7319183149647 338.15596618223276 963.1147331630781 334.1522549379466Q966.5189582317493 330.1485436936605 970.8224125638428 325.5239360532016Q975.1472771164941 320.89932841274276 979.771884756953 316.66010474232223Q984.3964923974119 312.4208810719016 988.5500751856017 309.72319328163394Q992.7250681943492 307.0255054913663 995.6368581901937 307.0255054913663L995.6368581901937 307.0255054913663Q999.3408263466723 307.0255054913663 999.3408263466723 310.8793451917486L999.3408263466723 310.8793451917486Q999.3408263466723 314.5833133482273 996.7287794386353 319.0366392242247Q994.0953223100408 323.51137532077973 992.403914885984 326.5944470810856L992.403914885984 326.5944470810856Q990.2414826096584 331.06918317764075 988.9354591556399 335.15853530415757Q987.6294357016214 339.2478874306744 987.3296926138139 341.85993433871135L987.3296926138139 341.85993433871135Q987.1584108493524 342.4808307348841 987.1584108493524 343.016086248826Q987.1584108493524 343.55134176276806 987.1584108493524 344.1722381589408L987.1584108493524 344.1722381589408Q987.1584108493524 350.3383816795525 991.4832754020039 350.3383816795525L991.4832754020039 350.3383816795525Q993.7955792222332 350.3383816795525 997.6494189226156 347.5550530070541Q1001.5032586229979 344.7931345551134 1005.506969867284 340.9392948547311Q1009.5106811115702 337.0854551543488 1012.8292652980107 333.46712788010086Q1016.1478494844508 329.8273903852953 1017.3896422767963 327.98611141733477L1017.3896422767963 327.98611141733477Q1017.8392569085077 327.5150865650659 1018.4601533046804 327.5150865650659L1018.4601533046804 327.5150865650659Q1019.081049700853 327.5150865650659 1019.3807927886606 327.98611141733477Q1019.7019460970257 328.4571362696038 1019.3807927886606 329.2279042096802L1019.3807927886606 329.2279042096802Q1017.8392569085077 331.8399511177172 1014.606313604298 335.7794317003303Q1011.3733703000884 339.69750206238564 1007.3696590558022 343.63698264499874Q1003.3445375909585 347.5550530070541 999.4906978905761 350.3383816795525L999.4906978905761 350.3383816795525Q997.4995473787119 351.8799175597054 994.3308347361752 353.0360694698202Q991.1835323141962 354.19222137993484 988.1004605538905 354.19222137993484L988.1004605538905 354.19222137993484Q985.6168749691996 354.19222137993484 983.3045711489701 352.9504285875895Q980.9922673287407 351.7300460158017 979.9217563008567 348.32582094713064L979.9217563008567 348.32582094713064Q979.4507314485878 346.9555668314391 979.4507314485878 344.4719812467482L979.4507314485878 344.4719812467482Q979.4507314485878 343.7012133066718 979.4507314485878 342.8662147049223Q979.4507314485878 342.00980588261507 979.6220132130492 341.0891663986348L979.6220132130492 341.0891663986348Q980.2214993886643 336.1648156703685 982.9191871789319 330.6837992076024Q985.6168749691996 325.20278274483644 987.9291787894289 320.89932841274276L987.9291787894289 320.89932841274276Q988.5500751856017 319.6575356203973 988.9354591556399 318.73689613641716Q989.3208431256782 317.8162566524369 989.3208431256782 317.19536025626417L989.3208431256782 317.19536025626417Q989.3208431256782 315.9535674639187 988.2503320977942 315.9535674639187L988.2503320977942 315.9535674639187Q987.1584108493524 315.9535674639187 984.8461070291231 317.345231800168Q982.5338032088937 318.73689613641716 978.6799635085114 322.11971098453057L978.6799635085114 322.11971098453057Q975.297148660398 325.0529112009327 971.5289498422462 329.76315972362227Q967.739340803537 334.45199802575405 964.121013529289 339.3977589745781Q960.5026862550411 344.3221097028445 957.8049984647735 347.8762063154194Q955.1073106745058 351.4088927074365 954.0153894260642 352.02978910360923L954.0153894260642 352.02978910360923Q953.2446214859878 352.50081395587813 950.482703034047 353.5713249837621Q947.6993743615486 354.66324623220385 946.4789917897609 354.66324623220385ZM969.7519015359588 309.63755239940326L969.7519015359588 309.63755239940326Q975.9180450565706 305.4839696112133 983.1546996050664 299.2321852083709Q990.4127643741198 293.001811026086 996.7930101003084 285.8293871392633Q1003.1946660470547 278.65696325244056 1006.5988911157258 272.1910766440212L1006.5988911157258 272.1910766440212Q1008.4401700836862 268.63698003144646 1008.4401700836862 266.324676211217L1008.4401700836862 266.324676211217Q1008.4401700836862 263.71262930318005 1006.1278662634568 263.71262930318005L1006.1278662634568 263.71262930318005Q1005.0573552355728 263.71262930318005 1003.6656908993236 264.2478848171221Q1002.2740265630745 264.78314033106403 1000.4327475951139 266.1748046673132L1000.4327475951139 266.1748046673132Q990.0916110657546 274.18222715588547 983.0048280611626 285.2084907430906Q975.9180450565706 296.2347543302957 969.7519015359588 309.63755239940326Z " fill="black" transform="matrix(0.8582289933472587,0,0,0.8582289933472587,0,12.890084128517856)"/></g></svg>